{"title":"Vampires Suck 2010 EXTENDED BDRip XviD-FRAGMENT","uid":5969354,"size":751014083,"categoryP":"video","categoryS":"movies","magnet":"?xt=urn:btih:37fb32b2a1366e62a7c6bde866e0b2a576d73366&amp;dn=Vampires+Suck+2010+EXTENDED+BDRip+XviD-FRAGMENT&amp;tr=udp%3A%2F%2Ftracker.openbittorrent.com%3A80&amp;tr=udp%3A%2F%2Fopen.demonii.com%3A1337&amp;tr=udp%3A%2F%2Ftracker.coppersurfer.tk%3A6969&amp;tr=udp%3A%2F%2Fexodus.desync.com%3A6969","seeders":1,"leechers":0,"uploader":"IwannaFan2","files":9,"time":1290221512,"description":"Filename:\nVampires Suck 2010 EXTENDED BDRip XviD-FRAGMENT\n &lt;a href=&quot;\nhttp://www.imdb.com/title/tt1666186/&quot; rel=&quot;nofollow&quot; target=&quot;_NEW&quot;&gt;\nhttp://www.imdb.com/title/tt1666186/&lt;/a&gt;\n\nVideo\nID                               : 0\nFormat                           : MPEG-4 Visual\nFormat profile                   : AdvancedSimple@L5\nFormat settings, BVOP            : Yes\nFormat settings, QPel            : No\nFormat settings, GMC             : No warppoints\nFormat settings, Matrix          : Default (H.263)\nMuxing mode                      : Packed bitstream\nCodec ID                         : XVID\nCodec ID/Hint                    : XviD\nDuration                         : 1h 23mn\nBit rate                         : 1 012 Kbps\nWidth                            : 624 pixels\nHeight                           : 336 pixels\nDisplay aspect ratio             : 1.857\nFrame rate                       : 23.976 fps\nResolution                       : 24 bits\nColorimetry                      : 4:2:0\nScan type                        : Progressive\nBits/(Pixel*Frame)               : 0.201\nStream size                      : 607 MiB (87%)\nWriting library                  : XviD 1.2.1 (UTC 2008-12-04)\n\nAudio\nID                               : 1\nFormat                           : MPEG Audio\nFormat version                   : Version 1\nFormat profile                   : Layer 3\nFormat_Settings_Mode             : Joint stereo / MS Stereo\nCodec ID                         : 55\nCodec ID/Hint                    : MP3\nDuration                         : 1h 23mn\nBit rate mode                    : Variable\nBit rate                         : 143 Kbps\nChannel(s)                       : 2 channels\nSampling rate                    : 48.0 KHz\nResolution                       : 16 bits\nStream size                      : 85.7 MiB (12%)\nAlignment                        : Aligned on interleaves\nInterleave, duration             : 24 ms (0.58 video frame)\nInterleave, preload duration     : 123 ms\nWriting library                  : LAME3.93 \nEncoding settings                : -m j -V 1 -q 2 -lowpass 19.5 --vbr-new\n\n\nUnrated Extended Version, slightly longer than the theatrical\n\nAnother quality release by your friends at FRAGMENT","torrent":{"xt":"urn:btih:37fb32b2a1366e62a7c6bde866e0b2a576d73366","amp;dn":"Vampires+Suck+2010+EXTENDED+BDRip+XviD-FRAGMENT","amp;tr":["udp%3A%2F%2Ftracker.openbittorrent.com%3A80","udp%3A%2F%2Fopen.demonii.com%3A1337","udp%3A%2F%2Ftracker.coppersurfer.tk%3A6969","udp%3A%2F%2Fexodus.desync.com%3A6969"],"infoHash":"37fb32b2a1366e62a7c6bde866e0b2a576d73366","infoHashBuffer":{"type":"Buffer","data":[55,251,50,178,161,54,110,98,167,198,189,232,102,224,178,165,118,215,51,102]},"announce":[],"urlList":[]}}